<svg version="1.0" xmlns="http://www.w3.org/2000/svg" width="800" height="800" viewBox="0 0 64 64" xml:space="preserve"><path fill="#F9EBB2" d="M62 60V14H2v46a2 2 0 0 0 2 2h56a2 2 0 0 0 2-2z"/><path fill="#B4CCB9" d="M2 4v8h60V4a2 2 0 0 0-2-2H4a2 2 0 0 0-2 2z"/><g fill="#394240"><path d="M60 0H4C1.789 0 0 1.789 0 4v56c0 2.211 1.789 4 4 4h56c2.211 0 4-1.789 4-4V4c0-2.211-1.789-4-4-4zm2 60a2 2 0 0 1-2 2H4a2 2 0 0 1-2-2V14h60v46zm0-48H2V4a2 2 0 0 1 2-2h56a2 2 0 0 1 2 2v8z"/><path d="M7 4a3 3 0 1 0 0 6 3 3 0 0 0 0-6zm0 4a1 1 0 1 1 0-2 1 1 0 1 1 0 2zM33 4H15a3 3 0 1 0 0 6h18a3 3 0 1 0 0-6zm0 4H15a1 1 0 1 1 0-2h18a1 1 0 1 1 0 2zM11 24h18a1 1 0 1 0 0-2H11a1 1 0 1 0 0 2zM11 30h18a1 1 0 1 0 0-2H11a1 1 0 1 0 0 2zM11 36h18a1 1 0 1 0 0-2H11a1 1 0 1 0 0 2zM11 42h18a1 1 0 1 0 0-2H11a1 1 0 1 0 0 2zM11 48h42a1 1 0 1 0 0-2H11a1 1 0 1 0 0 2zM11 54h42a1 1 0 1 0 0-2H11a1 1 0 1 0 0 2zM35 42h18a1 1 0 0 0 1-1V23a1 1 0 0 0-1-1H35a1 1 0 0 0-1 1v18a1 1 0 0 0 1 1zm1-18h16v16H36V24z"/></g><path fill="#F76D57" d="M36 24h16v16H36z"/><g fill="#506C7F"><path d="M33 6H15a1 1 0 1 0 0 2h18a1 1 0 1 0 0-2z"/><circle cx="7" cy="7" r="1"/></g></svg>